<?xml version="1.0"?>
<svg xmlns="http://www.w3.org/2000/svg" height="512px" viewBox="0 0 64 64" width="512px" class=""><g><path d="m12 47h2v2h-2z" data-original="#000000" class="active-path" data-old_color="#000000" fill="#FFFFFF"/><path d="m16 47h2v2h-2z" data-original="#000000" class="active-path" data-old_color="#000000" fill="#FFFFFF"/><path d="m45.414 18-11.414-11.414-13.414 13.414h-18.586v10h2v28h56v-28h2v-10h-18.586zm-11.414-8.586 8.586 8.586-2 2h-17.172zm24 46.586h-52v-26h18v6h-16v17h48v-17h-16v-6h18zm-24-18v2h-4v-2zm-4-2a2 2 0 0 1 4 0zm6 6v4h-8v-4zm-4-10a4 4 0 0 0 -4 4h-2v-10h12v10h-2a4 4 0 0 0 -4-4zm-4 6v2h-1a1 1 0 0 0 -1 1v6a1 1 0 0 0 1 1h10a1 1 0 0 0 1-1v-6a1 1 0 0 0 -1-1h-1v-2h18v13h-44v-13zm32-16v2h-4v2h4v2h-20v-4h-16v4h-20v-2h13v-2h-13v-2z" data-original="#000000" class="active-path" data-old_color="#000000" fill="#FFFFFF"/><path d="m50 44h2v-4h-6v2h4z" data-original="#000000" class="active-path" data-old_color="#000000" fill="#FFFFFF"/><path d="m44 24h10v2h-10z" data-original="#000000" class="active-path" data-old_color="#000000" fill="#FFFFFF"/></g> </svg>
