<?xml version="1.0"?>
<svg xmlns="http://www.w3.org/2000/svg" viewBox="0 0 64 64" width="512px" height="512px" class=""><g><g id="outline"><path d="M57,39h2V37H49v2h2v2H47V32a1,1,0,0,0-1-1H43V29h2V27H43V23a9.011,9.011,0,0,0-8-8.941V12h2V10H33V8a1,1,0,0,0,.9-.553l1-2a1,1,0,0,0-.188-1.154l-2-2a1,1,0,0,0-1.414,0l-2,2a1,1,0,0,0-.188,1.154l1,2A1,1,0,0,0,31,8v2H27v2h2v2.059A9.011,9.011,0,0,0,21,23v4H19v2h2v2H18a1,1,0,0,0-1,1v9H13V39h2V37H5v2H7v2H2V62H62V41H57Zm-4,0h2v2H53ZM43,33h2v2H43ZM34,16a7.008,7.008,0,0,1,7,7H39v2h2v2H37V21.734L33.723,16Zm5,15V29h2v2Zm2,2v2H39V33Zm-6-2V29h2v2Zm2,2v2H35V33ZM35,22.266V27H29V22.266l3-5.251ZM31,31V29h2v2Zm2,2v2H31V33ZM32,4.414l.783.783-.4.8h-.764l-.4-.8ZM31,12h2v2H31ZM23,25h2V23H23a7.008,7.008,0,0,1,7-7h.277L27,21.734V27H23Zm4,6V29h2v2Zm2,2v2H27V33Zm-6-4h2v2H23Zm0,4h2v2H23Zm-4,0h2v2H19Zm0,4H45v2H19Zm0,4h2v2h2V41h2v2h2V41h2v2h2V41h2v2h2V41h2v2h2V41h2v2h2V41h2V52H43V48a3,3,0,0,0-6,0v4H35V48a3,3,0,0,0-6,0v4H27V48a3,3,0,0,0-6,0v4H19Zm22,7v4H39V48a1,1,0,0,1,2,0Zm-6,6v2H29V54Zm-4-2V48a1,1,0,0,1,2,0v4Zm-6-4v4H23V48a1,1,0,0,1,2,0ZM9,39h2v2H9ZM4,43H17v2H4Zm0,4h8v3h2V47h3v5H9V49H7v3H4ZM14,60H4V58H14ZM4,56V54H17v2Zm19,4H16V58h7Zm-4-4V54h8v2Zm20,4H25V58H39Zm-2-4V54h8v2Zm11,4H41V58h7Zm12,0H50V58H60Zm0-4H47V54H60Zm0-4H47V47h3v3h2V47h3v3h2V47h3Zm0-9v2H47V43Z" data-original="#000000" class="" data-old_color="#000000" fill="#FFFFFF"/><rect x="31" y="23" width="2" height="2" data-original="#000000" class="" data-old_color="#000000" fill="#FFFFFF"/><path d="M58,10h-.31C56.781,7.983,54.912,7,52,7c-2.731,0-4.878,1.153-5.712,3H46a3.913,3.913,0,0,0-4,4v1a1,1,0,0,0,1,1H61a1,1,0,0,0,1-1V14A3.748,3.748,0,0,0,58,10ZM44,14a1.913,1.913,0,0,1,2-2h1a1,1,0,0,0,.974-.773C48.357,9.583,50.382,9,52,9c2.927,0,3.674,1.1,4.045,2.3A1,1,0,0,0,57,12h1a1.792,1.792,0,0,1,2,2Z" data-original="#000000" class="" data-old_color="#000000" fill="#FFFFFF"/><path d="M5,13H23a1,1,0,0,0,1-1V11a3.748,3.748,0,0,0-4-4h-.31C18.781,4.983,16.912,4,14,4,11.269,4,9.122,5.153,8.288,7H8a3.913,3.913,0,0,0-4,4v1A1,1,0,0,0,5,13ZM8,9H9a1,1,0,0,0,.974-.773C10.357,6.583,12.382,6,14,6c2.927,0,3.674,1.1,4.045,2.3A1,1,0,0,0,19,9h1a1.792,1.792,0,0,1,2,2H6A1.913,1.913,0,0,1,8,9Z" data-original="#000000" class="" data-old_color="#000000" fill="#FFFFFF"/></g></g> </svg>
