<?xml version="1.0"?>
<svg xmlns="http://www.w3.org/2000/svg" viewBox="0 0 64 64" width="512px" height="512px" class=""><g><g id="outline"><path d="M51.715,13.076A22.75,22.75,0,0,0,41.666,11a22.755,22.755,0,0,0-10.05,2.076A20.8,20.8,0,0,1,22.332,15a20.8,20.8,0,0,1-9.284-1.924A22.745,22.745,0,0,0,3,11H2V49H3a20.8,20.8,0,0,1,9.284,1.924A22.745,22.745,0,0,0,22.332,53a22.753,22.753,0,0,0,10.049-2.076A20.806,20.806,0,0,1,41.666,49a20.806,20.806,0,0,1,9.285,1.924A22.75,22.75,0,0,0,61,53h1V15H61A20.806,20.806,0,0,1,51.715,13.076ZM60,50.985a20.512,20.512,0,0,1-8.285-1.909A22.75,22.75,0,0,0,41.666,47a22.755,22.755,0,0,0-10.05,2.076A20.8,20.8,0,0,1,22.332,51a20.8,20.8,0,0,1-9.284-1.924A22.461,22.461,0,0,0,4,47.015V45.026a20.642,20.642,0,0,1,8.284,1.9A22.745,22.745,0,0,0,22.332,49a22.753,22.753,0,0,0,10.049-2.076A20.806,20.806,0,0,1,41.666,45a20.806,20.806,0,0,1,9.285,1.924A22.473,22.473,0,0,0,60,48.984Zm0-4.011a20.648,20.648,0,0,1-8.285-1.9A22.75,22.75,0,0,0,41.666,43a22.755,22.755,0,0,0-10.05,2.076A20.8,20.8,0,0,1,22.332,47a20.8,20.8,0,0,1-9.284-1.924A22.472,22.472,0,0,0,4,43.016V20.026a20.642,20.642,0,0,1,8.284,1.9A22.745,22.745,0,0,0,22.332,24a22.753,22.753,0,0,0,10.049-2.076A20.806,20.806,0,0,1,41.666,20a20.806,20.806,0,0,1,9.285,1.924A22.473,22.473,0,0,0,60,23.984Zm0-25a20.648,20.648,0,0,1-8.285-1.9A22.75,22.75,0,0,0,41.666,18a22.755,22.755,0,0,0-10.05,2.076A20.8,20.8,0,0,1,22.332,22a20.8,20.8,0,0,1-9.284-1.924A22.472,22.472,0,0,0,4,18.016v-5a20.506,20.506,0,0,1,8.284,1.909A22.745,22.745,0,0,0,22.332,17a22.753,22.753,0,0,0,10.049-2.076A20.806,20.806,0,0,1,41.666,13a20.806,20.806,0,0,1,9.285,1.924A22.471,22.471,0,0,0,60,16.985Z" data-original="#000000" class="active-path" data-old_color="#000000" fill="#FFFFFF"/><path d="M23.2,31.02l-4.566-.914-2.773-4.621a1.039,1.039,0,0,0-1.714,0L11.37,30.106,6.8,31.02a1,1,0,0,0-.511,1.687l3.636,3.636-.915,5.492a1,1,0,0,0,1.5,1.022L15,40.166l4.485,2.691a1,1,0,0,0,1.5-1.022l-.915-5.492,3.636-3.636A1,1,0,0,0,23.2,31.02Zm-4.9,4.273a1,1,0,0,0-.279.872l.644,3.863-3.143-1.885a1,1,0,0,0-1.03,0l-3.143,1.885.644-3.863a1,1,0,0,0-.279-.872L9.028,32.614,12.2,31.98a1,1,0,0,0,.661-.465L15,27.944l2.143,3.571a1,1,0,0,0,.661.465l3.168.634Z" data-original="#000000" class="active-path" data-old_color="#000000" fill="#FFFFFF"/><rect x="56" y="43" width="2" height="2" data-original="#000000" class="active-path" data-old_color="#000000" fill="#FFFFFF"/><rect x="52" y="41" width="2" height="2" data-original="#000000" class="active-path" data-old_color="#000000" fill="#FFFFFF"/><path d="M33.351,29.063a1,1,0,0,0-1.288.586L30,35.152l-2.063-5.5a1,1,0,1,0-1.874.7l3,8a1,1,0,0,0,1.874,0l3-8A1,1,0,0,0,33.351,29.063Z" data-original="#000000" class="active-path" data-old_color="#000000" fill="#FFFFFF"/><path d="M41,26H37a1,1,0,0,0-1,1v8a1,1,0,0,0,1,1h4a1,1,0,0,0,1-1V27A1,1,0,0,0,41,26Zm-1,8H38V28h2Z" data-original="#000000" class="active-path" data-old_color="#000000" fill="#FFFFFF"/><path d="M53,39h4a1,1,0,0,0,0-2H54V35h3a1,1,0,0,0,0-2H54V31h3a1,1,0,0,0,0-2H53a1,1,0,0,0-1,1v8A1,1,0,0,0,53,39Z" data-original="#000000" class="active-path" data-old_color="#000000" fill="#FFFFFF"/><path d="M49,28H45a1,1,0,0,0,0,2h1v7a1,1,0,0,0,2,0V30h1a1,1,0,0,0,0-2Z" data-original="#000000" class="active-path" data-old_color="#000000" fill="#FFFFFF"/></g></g> </svg>
