<?xml version="1.0"?>
<svg xmlns="http://www.w3.org/2000/svg" height="512px" viewBox="0 0 64 64" width="512px" class=""><g><path d="m28 10h2v2h-2z" data-original="#000000" class="active-path" data-old_color="#000000" fill="#FFFFFF"/><path d="m32 10h2v2h-2z" data-original="#000000" class="active-path" data-old_color="#000000" fill="#FFFFFF"/><path d="m48 16h2v2h-2z" data-original="#000000" class="active-path" data-old_color="#000000" fill="#FFFFFF"/><path d="m52 16h2v2h-2z" data-original="#000000" class="active-path" data-old_color="#000000" fill="#FFFFFF"/><path d="m30 24h2v2h-2z" data-original="#000000" class="active-path" data-old_color="#000000" fill="#FFFFFF"/><path d="m30 28h2v2h-2z" data-original="#000000" class="active-path" data-old_color="#000000" fill="#FFFFFF"/><path d="m30 32h2v2h-2z" data-original="#000000" class="active-path" data-old_color="#000000" fill="#FFFFFF"/><path d="m59 14h-1v-5a1 1 0 0 0 -1-1h-12a1 1 0 0 0 -1 1v14a1 1 0 0 0 1 1h11v2h-13a2.966 2.966 0 0 0 -1 .184v-3.184a3 3 0 0 0 -3-3h-13v-2h11a1 1 0 0 0 1-1v-14a1 1 0 0 0 -1-1h-12a1 1 0 0 0 -1 1v1h-1a3 3 0 0 0 -3 3v16a3 3 0 0 0 3 3h1v17a1 1 0 0 0 1 1h1v12h-1a1 1 0 0 0 -1 1v4a1 1 0 0 0 1 1h12a1 1 0 0 0 1-1v-4a1 1 0 0 0 -1-1h-1v-12h1a1 1 0 0 0 1-1v-1h1a2.984 2.984 0 0 0 1.116-.22 3 3 0 0 0 2.884 2.22h1v3a1 1 0 0 0 1 1h1v8h-1a1 1 0 0 0 -1 1v4a1 1 0 0 0 1 1h12a1 1 0 0 0 1-1v-4a1 1 0 0 0 -1-1h-1v-8h1a1 1 0 0 0 1-1v-15h1a3 3 0 0 0 3-3v-12a3 3 0 0 0 -3-3zm-33-10h10v2h-10zm0 4h10v8h-10zm-2 16h-1a1 1 0 0 1 -1-1v-13h2zm0-16h-2v-1a1 1 0 0 1 1-1h1zm6 52h-4v-2h4zm0-4h-2v-12h2zm0-14h-4v-4h4zm6 18h-4v-2h4zm-4-4v-12h2v12zm4-14h-4v-4h4zm0-6h-10v-14h10zm4 3a1 1 0 0 1 -1 1h-1v-2h2zm0-3h-2v-14h1a1 1 0 0 1 1 1zm4 6h-1a1 1 0 0 1 -1-1v-1h2zm0-4h-2v-9a1 1 0 0 1 1-1h1zm6 22h-4v-2h4zm0-4h-2v-8h2zm0-10h-4v-4h4zm6 14h-4v-2h4zm-4-4v-8h2v8zm4-10h-4v-4h4zm0-6h-10v-12h10zm0-18h-10v-8h10zm0-10h-10v-2h10zm4 17a1 1 0 0 1 -1 1h-1v-10h2zm0-11h-2v-2h1a1 1 0 0 1 1 1z" data-original="#000000" class="active-path" data-old_color="#000000" fill="#FFFFFF"/><path d="m50 30h2v2h-2z" data-original="#000000" class="active-path" data-old_color="#000000" fill="#FFFFFF"/><path d="m50 34h2v2h-2z" data-original="#000000" class="active-path" data-old_color="#000000" fill="#FFFFFF"/><path d="m6 9v14a1 1 0 0 0 1 1h10a1 1 0 0 0 1-1v-14a1 1 0 0 0 -1-1h-10a1 1 0 0 0 -1 1zm2 1h8v2h-8zm0 4h8v8h-8z" data-original="#000000" class="active-path" data-old_color="#000000" fill="#FFFFFF"/><path d="m5 44h1v3a1 1 0 0 0 1 1v8h-1a1 1 0 0 0 -1 1v4a1 1 0 0 0 1 1h12a1 1 0 0 0 1-1v-4a1 1 0 0 0 -1-1h-1v-8a1 1 0 0 0 1-1v-3h1a3 3 0 0 0 3-3v-12a3 3 0 0 0 -3-3h-14a3 3 0 0 0 -3 3v12a3 3 0 0 0 3 3zm13-16h1a1 1 0 0 1 1 1v9h-2zm0 12h2v1a1 1 0 0 1 -1 1h-1zm-7 16h-2v-8h2zm6 4h-4v-2h4zm-2-12v8h-2v-8zm-2-2v-4h3v4zm-5-18h8v12h-8zm0 14h3v4h-3zm3 16v2h-4v-2zm-7-29a1 1 0 0 1 1-1h1v10h-2zm0 11h2v2h-1a1 1 0 0 1 -1-1z" data-original="#000000" class="active-path" data-old_color="#000000" fill="#FFFFFF"/><path d="m11 30h2v2h-2z" data-original="#000000" class="active-path" data-old_color="#000000" fill="#FFFFFF"/><path d="m11 34h2v2h-2z" data-original="#000000" class="active-path" data-old_color="#000000" fill="#FFFFFF"/></g> </svg>
